{
  "asset": {
    "generator": "Khronos glTF Blender I/O v4.3.47",
    "version": "2.0"
  },
  "extensionsUsed": [
    "EXT_texture_webp",
    "KHR_materials_clearcoat",
    "KHR_materials_transmission",
    "KHR_materials_specular",
    "KHR_lights_punctual"
  ],
  "extensionsRequired": [
    "EXT_texture_webp",
    "KHR_lights_punctual"
  ],
  "extensions": {
    "KHR_lights_punctual": {
      "lights": [
        {
          "color": [
            1,
            1,
            1
          ],
          "intensity": 100,
          "type": "point",
          "name": "Light"
        },
        {
          "color": [
            1,
            1,
            1
          ],
          "intensity": 50,
          "type": "point",
          "name": "Light.003"
        }
      ]
    }
  },
  "scene": 0,
  "scenes": [
    {
      "name": "Scene",
      "nodes": [
        4,
        5,
        6,
        7,
        8,
        9,
        10
      ]
    }
  ],
  "nodes": [
    {
      "mesh": 0,
      "name": "Water_Wave_0",
      "rotation": [
        0,
        -0.025387689471244812,
        0,
        0.9996777176856995
      ],
      "scale": [
        1.1031839847564697,
        1.1031838655471802,
        1.1031839847564697
      ],
      "translation": [
        1.7405610084533691,
        -0.11861620098352432,
        -5.941726207733154
      ]
    },
    {
      "children": [
        0
      ],
      "name": "Water",
      "rotation": [
        -0.70710688829422,
        0,
        0,
        0.7071066498756409
      ],
      "scale": [
        198.16824340820312,
        204.80743408203125,
        101.62639617919922
      ],
      "translation": [
        -4.6072001457214355,
        358.1809387207031,
        -36.70774459838867
      ]
    },
    {
      "children": [
        1
      ],
      "name": "RootNode"
    },
    {
      "children": [
        2
      ],
      "name": "265f8d3aef824a7b81df70611d1f3723.fbx",
      "rotation": [
        0.70710688829422,
        0,
        0,
        0.7071066498756409
      ]
    },
    {
      "children": [
        3
      ],
      "name": "Sketchfab_model",
      "rotation": [
        -0.7071069478988647,
        0,
        0,
        0.7071066498756409
      ],
      "scale": [
        0.0018075034022331238,
        0.0018075036350637674,
        0.0018075036350637674
      ]
    },
    {
      "camera": 0,
      "name": "Camera.001",
      "rotation": [
        -0.07968651503324509,
        0.9199502468109131,
        0.25784239172935486,
        0.2843570411205292
      ],
      "translation": [
        2.4967470169067383,
        1.8095910549163818,
        -3.121873140335083
      ]
    },
    {
      "extensions": {
        "KHR_lights_punctual": {
          "light": 0
        }
      },
      "name": "Light",
      "rotation": [
        -0.04825395718216896,
        0.45391136407852173,
        -0.8317708969116211,
        0.31590068340301514
      ],
      "translation": [
        1.2031394243240356,
        0.6981340646743774,
        4.4612717628479
      ]
    },
    {
      "mesh": 1,
      "name": "Cube.009"
    },
    {
      "camera": 1,
      "name": "Camera",
      "rotation": [
        0.004816532600671053,
        0.7070903778076172,
        -0.004816532135009766,
        0.7070903778076172
      ],
      "translation": [
        1.1099810600280762,
        -0.4347674548625946,
        0
      ]
    },
    {
      "mesh": 2,
      "name": "Plane.001",
      "scale": [
        3.7513442039489746,
        3.7513442039489746,
        3.7513442039489746
      ],
      "translation": [
        0.509880006313324,
        -0.470286101102829,
        0.11502733826637268
      ]
    },
    {
      "extensions": {
        "KHR_lights_punctual": {
          "light": 1
        }
      },
      "name": "Light.002",
      "rotation": [
        -0.04825395718216896,
        0.45391136407852173,
        -0.8317708969116211,
        0.31590068340301514
      ],
      "translation": [
        -4.496064186096191,
        1.0136957168579102,
        -0.8139978647232056
      ]
    }
  ],
  "cameras": [
    {
      "name": "Camera",
      "perspective": {
        "aspectRatio": 1.7777777777777777,
        "yfov": 0.39959652046304894,
        "zfar": 1000,
        "znear": 0.10000000149011612
      },
      "type": "perspective"
    },
    {
      "name": "Camera.001",
      "perspective": {
        "aspectRatio": 1.7777777777777777,
        "yfov": 0.33435006292381547,
        "zfar": 1000,
        "znear": 0.10000000149011612
      },
      "type": "perspective"
    }
  ],
  "materials": [
    {
      "alphaMode": "BLEND",
      "doubleSided": true,
      "extensions": {
        "KHR_materials_clearcoat": {
          "clearcoatFactor": 1,
          "clearcoatRoughnessFactor": 0.08075229823589325,
          "clearcoatTexture": {
            "index": 0
          },
          "clearcoatNormalTexture": {
            "index": 1
          }
        },
        "KHR_materials_transmission": {
          "transmissionFactor": 0.5483571290969849
        }
      },
      "name": "Wave",
      "normalTexture": {
        "index": 2
      },
      "pbrMetallicRoughness": {
        "baseColorFactor": [
          0,
          0.45941442251205444,
          1,
          0.45164287090301514
        ],
        "baseColorTexture": {
          "index": 3
        },
        "metallicFactor": 0,
        "roughnessFactor": 0.26866915822029114
      }
    },
    {
      "doubleSided": true,
      "name": "Plaster Rough",
      "normalTexture": {
        "index": 4,
        "texCoord": 1
      },
      "pbrMetallicRoughness": {
        "baseColorTexture": {
          "index": 5,
          "texCoord": 1
        },
        "metallicFactor": 0,
        "metallicRoughnessTexture": {
          "index": 6,
          "texCoord": 1
        }
      }
    },
    {
      "doubleSided": true,
      "extensions": {
        "KHR_materials_specular": {
          "specularFactor": 0.20000000298023224
        }
      },
      "name": "Concrete",
      "normalTexture": {
        "index": 7,
        "texCoord": 1
      },
      "pbrMetallicRoughness": {
        "baseColorTexture": {
          "index": 8,
          "texCoord": 1
        },
        "metallicFactor": 0,
        "metallicRoughnessTexture": {
          "index": 9,
          "texCoord": 1
        }
      }
    },
    {
      "doubleSided": true,
      "name": "Material",
      "pbrMetallicRoughness": {
        "baseColorFactor": [
          0.011612175032496452,
          0.009134066291153431,
          0.007499036379158497,
          1
        ],
        "metallicFactor": 0
      }
    }
  ],
  "meshes": [
    {
      "name": "Water_Wave_0",
      "primitives": [
        {
          "attributes": {
            "POSITION": 0,
            "NORMAL": 1,
            "TEXCOORD_0": 2,
            "TANGENT": 3
          },
          "indices": 4,
          "material": 0
        }
      ]
    },
    {
      "name": "Cube.010",
      "primitives": [
        {
          "attributes": {
            "POSITION": 5,
            "NORMAL": 6,
            "TEXCOORD_0": 7,
            "TEXCOORD_1": 8,
            "TANGENT": 9
          },
          "indices": 10,
          "material": 1
        },
        {
          "attributes": {
            "POSITION": 11,
            "NORMAL": 12,
            "TEXCOORD_0": 13,
            "TEXCOORD_1": 14,
            "TANGENT": 15
          },
          "indices": 16,
          "material": 2
        },
        {
          "attributes": {
            "POSITION": 17,
            "NORMAL": 18,
            "TEXCOORD_0": 19,
            "TEXCOORD_1": 20,
            "TANGENT": 21
          },
          "indices": 22,
          "material": 1
        }
      ]
    },
    {
      "name": "Plane.004",
      "primitives": [
        {
          "attributes": {
            "POSITION": 23,
            "NORMAL": 24,
            "TEXCOORD_0": 25,
            "TEXCOORD_1": 26,
            "TANGENT": 27
          },
          "indices": 28,
          "material": 3
        }
      ]
    }
  ],
  "textures": [
    {
      "extensions": {
        "EXT_texture_webp": {
          "source": 0
        }
      },
      "sampler": 0
    },
    {
      "extensions": {
        "EXT_texture_webp": {
          "source": 1
        }
      },
      "sampler": 0
    },
    {
      "extensions": {
        "EXT_texture_webp": {
          "source": 2
        }
      },
      "sampler": 0
    },
    {
      "extensions": {
        "EXT_texture_webp": {
          "source": 3
        }
      },
      "sampler": 0
    },
    {
      "extensions": {
        "EXT_texture_webp": {
          "source": 4
        }
      },
      "sampler": 0
    },
    {
      "extensions": {
        "EXT_texture_webp": {
          "source": 5
        }
      },
      "sampler": 0
    },
    {
      "extensions": {
        "EXT_texture_webp": {
          "source": 6
        }
      },
      "sampler": 0
    },
    {
      "extensions": {
        "EXT_texture_webp": {
          "source": 7
        }
      },
      "sampler": 0
    },
    {
      "extensions": {
        "EXT_texture_webp": {
          "source": 8
        }
      },
      "sampler": 0
    },
    {
      "extensions": {
        "EXT_texture_webp": {
          "source": 9
        }
      },
      "sampler": 0
    }
  ],
  "images": [
    {
      "name": "Image_2",
      "uri": "miromar_map_draft_img0.webp"
    },
    {
      "name": "Image_3",
      "uri": "miromar_map_draft_img1.webp"
    },
    {
      "name": "Image_1",
      "uri": "miromar_map_draft_img2.webp"
    },
    {
      "name": "Image_0",
      "uri": "miromar_map_draft_img3.webp"
    },
    {
      "name": "Plaster_01_normalogl",
      "uri": "miromar_map_draft_img4.webp"
    },
    {
      "name": "Plaster_01_basecolor",
      "uri": "miromar_map_draft_img5.webp"
    },
    {
      "name": "Plaster_01_roughness",
      "uri": "miromar_map_draft_img6.webp"
    },
    {
      "name": "concrete_47_normal",
      "uri": "miromar_map_draft_img7.webp"
    },
    {
      "name": "concrete_47_color",
      "uri": "miromar_map_draft_img8.webp"
    },
    {
      "name": "concrete_47_roughnesss",
      "uri": "miromar_map_draft_img9.webp"
    }
  ],
  "accessors": [
    {
      "bufferView": 0,
      "componentType": 5126,
      "count": 2500,
      "max": [
        10.394207954406738,
        10.770730972290039,
        0.8724742531776428
      ],
      "min": [
        -10.394207954406738,
        -10.770730972290039,
        -0.46858665347099304
      ],
      "type": "VEC3"
    },
    {
      "bufferView": 1,
      "componentType": 5126,
      "count": 2500,
      "type": "VEC3"
    },
    {
      "bufferView": 2,
      "componentType": 5126,
      "count": 2500,
      "type": "VEC2"
    },
    {
      "bufferView": 3,
      "componentType": 5126,
      "count": 2500,
      "type": "VEC4"
    },
    {
      "bufferView": 4,
      "componentType": 5123,
      "count": 14406,
      "type": "SCALAR"
    },
    {
      "bufferView": 5,
      "componentType": 5126,
      "count": 3112,
      "max": [
        0.5075382590293884,
        -0.3793320059776306,
        0.11254849284887314
      ],
      "min": [
        0.31365880370140076,
        -0.43258100748062134,
        -0.09187863767147064
      ],
      "type": "VEC3"
    },
    {
      "bufferView": 6,
      "componentType": 5126,
      "count": 3112,
      "type": "VEC3"
    },
    {
      "bufferView": 7,
      "componentType": 5126,
      "count": 3112,
      "type": "VEC2"
    },
    {
      "bufferView": 8,
      "componentType": 5126,
      "count": 3112,
      "type": "VEC2"
    },
    {
      "bufferView": 9,
      "componentType": 5126,
      "count": 3112,
      "type": "VEC4"
    },
    {
      "bufferView": 10,
      "componentType": 5123,
      "count": 6600,
      "type": "SCALAR"
    },
    {
      "bufferView": 11,
      "componentType": 5126,
      "count": 1870,
      "max": [
        0.5075382590293884,
        -0.4006316065788269,
        0.11254849284887314
      ],
      "min": [
        0.31365880370140076,
        -0.4725177586078644,
        -0.09187863767147064
      ],
      "type": "VEC3"
    },
    {
      "bufferView": 12,
      "componentType": 5126,
      "count": 1870,
      "type": "VEC3"
    },
    {
      "bufferView": 13,
      "componentType": 5126,
      "count": 1870,
      "type": "VEC2"
    },
    {
      "bufferView": 14,
      "componentType": 5126,
      "count": 1870,
      "type": "VEC2"
    },
    {
      "bufferView": 15,
      "componentType": 5126,
      "count": 1870,
      "type": "VEC4"
    },
    {
      "bufferView": 16,
      "componentType": 5123,
      "count": 5604,
      "type": "SCALAR"
    },
    {
      "bufferView": 17,
      "componentType": 5126,
      "count": 587,
      "max": [
        0.37223267555236816,
        -0.37400713562965393,
        -0.011817196384072304
      ],
      "min": [
        0.31365880370140076,
        -0.4006316065788269,
        -0.09169067442417145
      ],
      "type": "VEC3"
    },
    {
      "bufferView": 18,
      "componentType": 5126,
      "count": 587,
      "type": "VEC3"
    },
    {
      "bufferView": 19,
      "componentType": 5126,
      "count": 587,
      "type": "VEC2"
    },
    {
      "bufferView": 20,
      "componentType": 5126,
      "count": 587,
      "type": "VEC2"
    },
    {
      "bufferView": 21,
      "componentType": 5126,
      "count": 587,
      "type": "VEC4"
    },
    {
      "bufferView": 22,
      "componentType": 5123,
      "count": 1272,
      "type": "SCALAR"
    },
    {
      "bufferView": 23,
      "componentType": 5126,
      "count": 7213,
      "max": [
        1.1374187469482422,
        0.15199829638004303,
        1.0008372068405151
      ],
      "min": [
        -1.0002351999282837,
        -0.12142845243215561,
        -1.0276840925216675
      ],
      "type": "VEC3"
    },
    {
      "bufferView": 24,
      "componentType": 5126,
      "count": 7213,
      "type": "VEC3"
    },
    {
      "bufferView": 25,
      "componentType": 5126,
      "count": 7213,
      "type": "VEC2"
    },
    {
      "bufferView": 26,
      "componentType": 5126,
      "count": 7213,
      "type": "VEC2"
    },
    {
      "bufferView": 27,
      "componentType": 5126,
      "count": 7213,
      "type": "VEC4"
    },
    {
      "bufferView": 28,
      "componentType": 5123,
      "count": 42282,
      "type": "SCALAR"
    }
  ],
  "bufferViews": [
    {
      "buffer": 0,
      "byteLength": 30000,
      "byteOffset": 0,
      "target": 34962
    },
    {
      "buffer": 0,
      "byteLength": 30000,
      "byteOffset": 30000,
      "target": 34962
    },
    {
      "buffer": 0,
      "byteLength": 20000,
      "byteOffset": 60000,
      "target": 34962
    },
    {
      "buffer": 0,
      "byteLength": 40000,
      "byteOffset": 80000,
      "target": 34962
    },
    {
      "buffer": 0,
      "byteLength": 28812,
      "byteOffset": 120000,
      "target": 34963
    },
    {
      "buffer": 0,
      "byteLength": 37344,
      "byteOffset": 148812,
      "target": 34962
    },
    {
      "buffer": 0,
      "byteLength": 37344,
      "byteOffset": 186156,
      "target": 34962
    },
    {
      "buffer": 0,
      "byteLength": 24896,
      "byteOffset": 223500,
      "target": 34962
    },
    {
      "buffer": 0,
      "byteLength": 24896,
      "byteOffset": 248396,
      "target": 34962
    },
    {
      "buffer": 0,
      "byteLength": 49792,
      "byteOffset": 273292,
      "target": 34962
    },
    {
      "buffer": 0,
      "byteLength": 13200,
      "byteOffset": 323084,
      "target": 34963
    },
    {
      "buffer": 0,
      "byteLength": 22440,
      "byteOffset": 336284,
      "target": 34962
    },
    {
      "buffer": 0,
      "byteLength": 22440,
      "byteOffset": 358724,
      "target": 34962
    },
    {
      "buffer": 0,
      "byteLength": 14960,
      "byteOffset": 381164,
      "target": 34962
    },
    {
      "buffer": 0,
      "byteLength": 14960,
      "byteOffset": 396124,
      "target": 34962
    },
    {
      "buffer": 0,
      "byteLength": 29920,
      "byteOffset": 411084,
      "target": 34962
    },
    {
      "buffer": 0,
      "byteLength": 11208,
      "byteOffset": 441004,
      "target": 34963
    },
    {
      "buffer": 0,
      "byteLength": 7044,
      "byteOffset": 452212,
      "target": 34962
    },
    {
      "buffer": 0,
      "byteLength": 7044,
      "byteOffset": 459256,
      "target": 34962
    },
    {
      "buffer": 0,
      "byteLength": 4696,
      "byteOffset": 466300,
      "target": 34962
    },
    {
      "buffer": 0,
      "byteLength": 4696,
      "byteOffset": 470996,
      "target": 34962
    },
    {
      "buffer": 0,
      "byteLength": 9392,
      "byteOffset": 475692,
      "target": 34962
    },
    {
      "buffer": 0,
      "byteLength": 2544,
      "byteOffset": 485084,
      "target": 34963
    },
    {
      "buffer": 0,
      "byteLength": 86556,
      "byteOffset": 487628,
      "target": 34962
    },
    {
      "buffer": 0,
      "byteLength": 86556,
      "byteOffset": 574184,
      "target": 34962
    },
    {
      "buffer": 0,
      "byteLength": 57704,
      "byteOffset": 660740,
      "target": 34962
    },
    {
      "buffer": 0,
      "byteLength": 57704,
      "byteOffset": 718444,
      "target": 34962
    },
    {
      "buffer": 0,
      "byteLength": 115408,
      "byteOffset": 776148,
      "target": 34962
    },
    {
      "buffer": 0,
      "byteLength": 84564,
      "byteOffset": 891556,
      "target": 34963
    }
  ],
  "samplers": [
    {
      "magFilter": 9729,
      "minFilter": 9987
    }
  ],
  "buffers": [
    {
      "uri": "miromar_map_draft_data.bin",
      "byteLength": 976120
    }
  ]
}